<svg width="49" height="48" viewBox="0 0 49 48" fill="none" xmlns="http://www.w3.org/2000/svg">
<g clip-path="url(#clip0_887_8241)">
<path d="M24.5 4C26.7 4 28.5 5.8 28.5 8C28.5 10.2 26.7 12 24.5 12C22.3 12 20.5 10.2 20.5 8C20.5 5.8 22.3 4 24.5 4ZM40.5 18H30.5V42C30.5 43.1 29.6 44 28.5 44C27.4 44 26.5 43.1 26.5 42V32H22.5V42C22.5 43.1 21.6 44 20.5 44C19.4 44 18.5 43.1 18.5 42V18H8.5C7.4 18 6.5 17.1 6.5 16C6.5 14.9 7.4 14 8.5 14H40.5C41.6 14 42.5 14.9 42.5 16C42.5 17.1 41.6 18 40.5 18Z" fill="#071871"/>
</g>
<defs>
<clipPath id="clip0_887_8241">
<rect width="48" height="48" fill="white" transform="translate(0.5)"/>
</clipPath>
</defs>
</svg>
