<svg width="49" height="48" viewBox="0 0 49 48" fill="none" xmlns="http://www.w3.org/2000/svg">
<g clip-path="url(#clip0_887_8245)">
<path d="M32.5 26H26.5C25.4 26 24.5 26.9 24.5 28V34C24.5 35.1 25.4 36 26.5 36H32.5C33.6 36 34.5 35.1 34.5 34V28C34.5 26.9 33.6 26 32.5 26ZM32.5 6V8H16.5V6C16.5 4.9 15.6 4 14.5 4C13.4 4 12.5 4.9 12.5 6V8H10.5C8.28 8 6.52 9.8 6.52 12L6.5 40C6.5 42.2 8.28 44 10.5 44H38.5C40.7 44 42.5 42.2 42.5 40V12C42.5 9.8 40.7 8 38.5 8H36.5V6C36.5 4.9 35.6 4 34.5 4C33.4 4 32.5 4.9 32.5 6ZM36.5 40H12.5C11.4 40 10.5 39.1 10.5 38V18H38.5V38C38.5 39.1 37.6 40 36.5 40Z" fill="#071871"/>
</g>
<defs>
<clipPath id="clip0_887_8245">
<rect width="48" height="48" fill="white" transform="translate(0.5)"/>
</clipPath>
</defs>
</svg>
