<svg width="49" height="48" viewBox="0 0 49 48" fill="none" xmlns="http://www.w3.org/2000/svg">
<g clip-path="url(#clip0_887_8237)">
<path d="M24.48 4C13.44 4 4.5 12.96 4.5 24C4.5 35.04 13.44 44 24.48 44C35.54 44 44.5 35.04 44.5 24C44.5 12.96 35.54 4 24.48 4ZM24.5 40C15.66 40 8.5 32.84 8.5 24C8.5 15.16 15.66 8 24.5 8C33.34 8 40.5 15.16 40.5 24C40.5 32.84 33.34 40 24.5 40ZM24.06 14H23.94C23.14 14 22.5 14.64 22.5 15.44V24.88C22.5 25.58 22.86 26.24 23.48 26.6L31.78 31.58C32.46 31.98 33.34 31.78 33.74 31.1C34.16 30.42 33.94 29.52 33.24 29.12L25.5 24.52V15.44C25.5 14.64 24.86 14 24.06 14Z" fill="#071871"/>
</g>
<defs>
<clipPath id="clip0_887_8237">
<rect width="48" height="48" fill="white" transform="translate(0.5)"/>
</clipPath>
</defs>
</svg>
