<svg width="43" height="43" viewBox="0 0 43 43" fill="none" xmlns="http://www.w3.org/2000/svg">
<path d="M35.5 22.0524L37.41 20.1424C40.136 17.4144 41.5 16.0484 41.5 14.3564C41.5 12.6644 40.136 11.2984 37.41 8.57238L34.516 5.67838C31.79 2.95238 30.426 1.58838 28.732 1.58838C27.036 1.58838 25.672 2.95238 22.946 5.67838L5.59 23.0344C2.864 25.7624 1.5 27.1244 1.5 28.8204C1.5 30.5164 2.864 31.8784 5.59 34.6044L8.484 37.4984C11.21 40.2244 12.574 41.5884 14.268 41.5884C15.962 41.5884 17.328 40.2244 20.054 37.4984L29.964 27.5884M14.428 14.5164L17.26 17.3484M22.914 6.03238L25.742 8.86038M5.944 23.0024L8.772 25.8304M10.186 18.7604L14.43 23.0024M18.672 10.2744L22.914 14.5164" stroke="white" stroke-width="1.5" stroke-linecap="round"/>
</svg>
