<svg width="48" height="48" viewBox="0 0 48 48" fill="none" xmlns="http://www.w3.org/2000/svg">
<g clip-path="url(#clip0_938_845)">
<path d="M10 30H38C39.1 30 40 29.1 40 28C40 26.9 39.1 26 38 26H10C8.9 26 8 26.9 8 28C8 29.1 8.9 30 10 30ZM10 38H38C39.1 38 40 37.1 40 36C40 34.9 39.1 34 38 34H10C8.9 34 8 34.9 8 36C8 37.1 8.9 38 10 38ZM10 22H38C39.1 22 40 21.1 40 20C40 18.9 39.1 18 38 18H10C8.9 18 8 18.9 8 20C8 21.1 8.9 22 10 22ZM8 12C8 13.1 8.9 14 10 14H38C39.1 14 40 13.1 40 12C40 10.9 39.1 10 38 10H10C8.9 10 8 10.9 8 12Z" fill="white"/>
</g>
<defs>
<clipPath id="clip0_938_845">
<rect width="48" height="48" fill="white"/>
</clipPath>
</defs>
</svg>
