<svg width="48" height="48" viewBox="0 0 49 48" fill="none" xmlns="http://www.w3.org/2000/svg">
<g clip-path="url(#clip0_882_2623)">
<path d="M35.1 12.6C34.32 11.82 33.06 11.82 32.28 12.6L21 23.88L23.82 26.7L35.1 15.4C35.86 14.64 35.86 13.36 35.1 12.6ZM43.58 12.58L23.82 32.34L16.86 25.4C16.08 24.62 14.82 24.62 14.04 25.4C13.26 26.18 13.26 27.44 14.04 28.22L22.4 36.58C23.18 37.36 24.44 37.36 25.22 36.58L46.4 15.42C47.18 14.64 47.18 13.38 46.4 12.6H46.38C45.62 11.8 44.36 11.8 43.58 12.58ZM2.74003 28.24L11.1 36.6C11.88 37.38 13.14 37.38 13.92 36.6L15.32 35.2L5.56003 25.4C4.78003 24.62 3.52003 24.62 2.74003 25.4C1.96003 26.18 1.96003 27.46 2.74003 28.24Z" fill="#071871"/>
</g>
<defs>
<clipPath id="clip0_882_2623">
<rect width="48" height="48" fill="white" transform="translate(0.5)"/>
</clipPath>
</defs>
</svg>
