<svg width="41" height="40" viewBox="0 0 41 40" fill="none" xmlns="http://www.w3.org/2000/svg">
<path d="M14.913 0.049233C14.4554 0.192312 14.2107 0.502316 14.1043 1.05078C14.0511 1.34489 13.9233 1.71849 13.8276 1.87746C13.3487 2.62465 11.8908 3.2844 9.48571 3.85672C8.71949 4.03159 7.32541 4.35749 6.37829 4.58006C2.29183 5.54187 0.684914 6.58316 0.514644 8.3796C0.418868 9.50833 0.801974 11.6625 1.39792 13.2522C2.12156 15.1838 2.9197 16.6146 5.10127 19.8815C6.80397 22.449 7.30413 23.3472 7.30413 23.848C7.30413 24.317 6.44214 25.4457 4.95229 26.9242C2.65365 29.2214 1.88744 30.1276 1.20636 31.4153C0.770048 32.234 0.450793 33.4581 0.525286 34.0225C0.557212 34.3245 0.642346 34.4676 0.908392 34.6584L1.23829 34.9128L10.2306 34.9366L19.223 34.9525V36.5423V38.1241L15.3387 38.1479L11.4544 38.1718L11.1139 38.4341C10.8159 38.6566 10.7627 38.7441 10.7627 39.0859C10.7627 39.4277 10.8159 39.5151 11.1139 39.7377L11.4544 40H20.5H29.5456L29.8861 39.7377C30.1841 39.5151 30.2373 39.4277 30.2373 39.0859C30.2373 38.7441 30.1841 38.6566 29.8861 38.4341L29.5456 38.1718L25.6613 38.1479L21.777 38.1241V36.5423V34.9525L30.7587 34.9366L39.7511 34.9128L40.0703 34.6822C40.496 34.3802 40.5705 34.0463 40.4109 33.1958C40.0916 31.3914 39.0913 29.9447 36.0477 26.9242C34.5579 25.4457 33.6959 24.317 33.6959 23.848C33.6959 23.3472 34.2067 22.4252 35.7604 20.1121C37.942 16.853 38.8891 15.1679 39.6021 13.2522C40.198 11.6625 40.5811 9.50833 40.4854 8.3796C40.3151 6.57521 38.7188 5.54187 34.6217 4.58006C33.6746 4.35749 32.3018 4.03954 31.5675 3.86467C29.1092 3.2844 27.6513 2.62465 27.1724 1.87746C27.0767 1.71849 26.9489 1.34489 26.8957 1.04284C26.8106 0.60565 26.7255 0.462572 26.4594 0.263851L26.1402 0.0174377L20.6277 0.00154004C17.6054 -0.00640878 15.0301 0.0174377 14.913 0.049233ZM24.6397 2.3226C24.9909 3.06184 25.5336 3.59441 26.5126 4.16672C27.7897 4.92186 28.8538 5.24776 33.7491 6.37649C36.335 6.9806 37.3779 7.40984 37.7823 8.0378C38.2186 8.72934 37.7398 11.4558 36.7926 13.6338C36.1754 15.0487 35.505 16.1774 33.5682 19.0946C32.6104 20.5333 31.6952 22.0198 31.5249 22.3854C30.9822 23.6334 31.0461 24.4919 31.791 25.5888C32.2273 26.2326 32.653 26.7096 34.4408 28.514C36.516 30.6124 37.2396 31.5345 37.6653 32.6235L37.8355 33.0448H20.5H3.16446L3.33473 32.6235C3.7604 31.5345 4.48405 30.6124 6.5592 28.514C8.34703 26.7096 8.7727 26.2326 9.20902 25.5888C9.95395 24.4919 10.0178 23.6334 9.47506 22.3854C9.3048 22.0198 8.3896 20.5333 7.43183 19.0946C5.49502 16.1774 4.82458 15.0487 4.20736 13.6338C3.29216 11.5194 2.792 8.77704 3.19639 8.06164C3.53692 7.44958 4.66496 6.9806 7.25092 6.37649C12.061 5.26366 13.1678 4.92981 14.4342 4.20647C15.3919 3.658 16.0624 2.99825 16.3497 2.3226C16.4242 2.14772 16.5093 1.9808 16.5306 1.94105C16.5519 1.90926 18.3503 1.89336 20.5106 1.90131L24.4588 1.92515L24.6397 2.3226Z" fill="white"/>
</svg>
