<svg width="41" height="40" viewBox="0 0 41 40" fill="none" xmlns="http://www.w3.org/2000/svg">
<path d="M25.7121 0.114483C25.3154 0.342762 25.2809 0.545677 25.2378 2.8792L25.1947 5.09859L24.0306 5.39028C23.3926 5.55515 21.875 5.96098 20.6678 6.31608C16.96 7.3687 15.0889 7.66039 13.1574 7.45748C12.2693 7.35602 12.1572 7.3687 11.9588 7.5843C11.6139 7.95208 11.6139 8.97934 11.9588 9.24567C12.2693 9.48663 14.149 9.62613 15.4338 9.49931C17.0031 9.33444 18.081 9.10616 20.5816 8.39596C25.2292 7.08969 26.4536 6.83605 28.0919 6.83605C29.7044 6.83605 30.8598 7.24188 31.8428 8.16768L32.3084 8.61156H33.9899H35.6713V10.6914V12.7713L34.4727 12.822C33.05 12.8728 32.9896 12.9108 32.8258 14.0903C32.7741 14.5215 32.6275 15.1809 32.5068 15.5741C32.1015 16.9057 32.1532 18.1486 32.7396 21.1796C33.1621 23.3863 33.1966 23.9697 33.2052 28.4846L33.2138 32.7077H32.6102C32.2826 32.7077 31.9204 32.7458 31.8083 32.7838C31.541 32.898 31.3341 33.5067 31.403 33.9886C31.5151 34.7496 31.4807 34.7369 35.473 34.7369H39.1117L39.1376 36.2841C39.1549 37.1465 39.1549 37.8821 39.1376 37.9328C39.1204 37.9962 30.7305 38.0343 20.4867 38.0343H1.87028V36.3856V34.7369H15.8822H29.9027L30.1096 34.4198C30.2476 34.2296 30.3252 33.9633 30.3252 33.7223C30.3252 33.4813 30.2476 33.215 30.1096 33.0248L29.9027 32.7077H26.5743C24.7463 32.7077 23.2546 32.6697 23.2546 32.6316C23.2546 32.5936 23.3667 32.34 23.5046 32.0863C24.0479 31.0844 25.1947 28.3704 25.7121 26.8486C26.4019 24.8701 26.7382 23.5385 26.9279 22.0927C27.29 19.2519 26.7295 17.7554 24.7549 16.297C21.3059 13.7605 14.2352 12.5304 10.493 13.8239C9.1306 14.2932 8.4839 14.9273 8.01827 16.2589C7.81995 16.8423 7.78546 17.1213 7.7251 18.8334C7.64749 20.8626 7.56127 21.6742 7.31121 22.4986C7.05253 23.3483 6.86283 23.5131 6.04367 23.5639C5.55218 23.5892 5.27625 23.5512 5.19002 23.4497C5.07793 23.3102 5.06068 22.1181 5.06068 14.6229V5.94829L5.27625 5.79611C5.46595 5.66929 5.55218 5.72001 6.06954 6.2273C6.3972 6.54436 6.9663 7.03896 7.35432 7.31797C8.1045 7.87599 9.70832 8.73838 9.98425 8.73838C10.2602 8.73838 10.5792 8.16768 10.5792 7.68576C10.5792 7.11506 10.4154 6.92482 9.50138 6.4429C8.39767 5.8722 7.56989 5.27614 6.75935 4.45179C6.1299 3.81768 5.99193 3.74159 5.53493 3.69086C5.05206 3.65282 4.98308 3.67818 4.49158 4.14742C3.67243 4.93372 3.68105 4.88299 3.68105 7.55893V9.87978H2.98261C2.18932 9.87978 2.02549 9.96855 1.87028 10.5012C1.79268 10.8056 1.79268 10.9451 1.88753 11.2241C2.05136 11.7314 2.34453 11.9089 3.06021 11.9089H3.68105V14.1917V16.4745H2.94812C2.0686 16.4745 1.87028 16.6648 1.87028 17.4764C1.87028 18.25 2.14621 18.5037 2.99986 18.5037H3.68105V20.9387C3.68105 22.283 3.72416 23.6019 3.7759 23.8682C3.89662 24.5024 4.41398 25.2506 4.87098 25.4535L5.23314 25.6184V27.6983V29.7781L5.45733 30.0318C5.75912 30.3869 6.03505 30.3615 6.32822 29.9937L6.56966 29.6894L6.59552 27.6475L6.63001 25.6184L7.0784 25.4282C7.98378 25.035 8.63048 23.7668 8.90641 21.8137C8.97539 21.2938 9.06162 20.0636 9.09611 19.0744C9.15647 17.3876 9.18234 17.2355 9.38928 16.8296C9.8894 15.8658 11.0535 15.4599 13.623 15.3712C16.7358 15.257 20.0211 15.9292 22.7372 17.2355C24.5221 18.0978 25.4016 18.9349 25.5913 19.9368C25.9535 21.9532 24.5652 26.5442 22.0991 31.4649L21.4869 32.6951L11.4242 32.7331C1.4219 32.7711 1.36154 32.7711 1.12873 33.0375C0.55963 33.6462 0.533762 33.7857 0.507894 36.1953C0.473403 38.6937 0.533762 39.0488 1.05975 39.6322L1.37879 40H20.4953H39.6119L39.9309 39.6322C40.4569 39.0488 40.5172 38.6937 40.4828 36.1953C40.4569 33.7857 40.431 33.6462 39.8619 33.0375C39.6377 32.7838 39.4911 32.7711 37.1285 32.7331C35.266 32.7077 34.6366 32.657 34.6279 32.5429C34.6193 32.4541 34.6021 30.5391 34.5934 28.269C34.5676 23.7287 34.49 22.6634 34.0416 20.4821C33.895 19.7973 33.7312 18.732 33.6708 18.1232C33.576 17.0325 33.576 16.9818 33.8002 16.2589C33.9209 15.8531 34.0502 15.3585 34.0761 15.1683L34.1364 14.8132L34.8866 14.8512L35.6282 14.8892L35.6713 16.6013C35.7058 18.0217 35.7489 18.4022 35.9041 18.8207C36.318 19.9621 36.913 20.3933 38.0684 20.406C39.267 20.406 39.8619 19.9241 40.2931 18.5671L40.5 17.933V11.4651C40.5 7.39407 40.4655 4.81958 40.4138 4.52789C40.2758 3.81768 39.8188 3.01871 39.3359 2.6636C38.9652 2.37191 38.8013 2.33387 38.0425 2.33387C37.0768 2.33387 36.7233 2.5241 36.2145 3.3104C35.8092 3.91914 35.6713 4.52789 35.6713 5.63124V6.5824H34.2227H32.7741L32.205 6.13853C30.9633 5.162 29.6958 4.78153 27.8332 4.81958L26.6606 4.83226L26.6088 2.63824C26.583 1.42075 26.5571 0.418855 26.5485 0.406173C26.5053 0.33008 26.0139 -0.0123394 25.9535 0.000342846C25.919 0.000342846 25.8069 0.0510716 25.7121 0.114483ZM38.8703 4.66739L39.1204 5.03518V11.4016V17.7554L38.9048 18.0598C38.7237 18.3388 38.6203 18.3768 38.077 18.3768C37.551 18.3768 37.4217 18.3261 37.2492 18.0978L37.0509 17.8315V11.4016C37.0509 6.45558 37.0768 4.93372 37.163 4.78153C37.3527 4.43911 37.6028 4.31229 38.1115 4.29961C38.5599 4.29961 38.6461 4.35034 38.8703 4.66739Z" fill="white"/>
<path d="M29.506 14.4708C29.2387 14.6864 29.118 14.9654 29.118 15.4092C29.118 15.7897 29.0921 15.8278 28.7644 15.9039C28.3161 16.018 28.0833 16.3477 28.0833 16.8931C28.0833 17.5018 28.2557 17.7681 28.6955 17.8569C29.0231 17.9203 29.0749 17.9711 29.1007 18.2627C29.1266 18.5671 29.0921 18.6052 28.7731 18.6813C28.3247 18.7827 28.0833 19.1378 28.0833 19.7085C28.0833 20.3173 28.3333 20.6597 28.7731 20.6597H29.118V21.2811C29.118 22.0928 29.1697 22.283 29.4715 22.5113C30.0061 22.9171 30.4976 22.321 30.4976 21.2811V20.6597H30.8339C31.1012 20.6597 31.2133 20.5836 31.3513 20.3299C31.7565 19.569 31.3685 18.6305 30.6614 18.6305C30.5407 18.6305 30.4976 18.5418 30.4976 18.2501C30.4976 17.895 30.5149 17.8696 30.8339 17.8696C31.1012 17.8696 31.2133 17.7935 31.3513 17.5399C31.7134 16.8677 31.4547 16.056 30.8425 15.9039C30.5321 15.8278 30.4976 15.777 30.4976 15.4346C30.4976 15.1937 30.4114 14.9273 30.2476 14.6864C29.9802 14.2932 29.7905 14.2425 29.506 14.4708Z" fill="white"/>
</svg>
