<svg width="143" height="80" viewBox="0 0 143 80" fill="none" xmlns="http://www.w3.org/2000/svg">
<path d="M46.1583 0.5L44.5034 8.40509C43.79 11.831 44.3704 15.3611 46.1583 18.4514H52.8132V0.5H46.1583ZM55.1085 0.5V13.8796H55.4867C56.2952 13.8796 56.9473 13.2894 56.9473 12.5718V0.5H55.1085ZM59.2556 0.5V12.5718C59.2556 14.412 57.5733 15.9051 55.4867 15.9051H55.1085V25.3611H57.0516V18.4514H59.6077C59.6077 18.4514 60.5988 16.6806 61.3813 15.2454C61.9942 14.1806 63.2201 13.4977 64.5764 13.4977H75.0354C76.9916 13.4977 78.5826 14.8981 78.5826 16.6343V27.2245H41.5L42.8785 35.1528H97.4662L98.8355 27.8495L96.0839 0.5H59.2556ZM99.6963 3.20833C99.0572 3.25463 98.5878 3.75231 98.653 4.30787L99.2137 9.79398C99.2659 10.3495 99.8267 10.7662 100.453 10.7199C101.092 10.6736 101.548 10.1644 101.496 9.6088L100.948 4.13426C100.896 3.61343 100.4 3.20833 99.8136 3.20833H99.6963ZM88.3765 3.21991C91.2065 3.21991 93.4887 5.24537 93.4887 7.75694C93.4887 10.2685 91.2065 12.294 88.3765 12.294C85.5466 12.294 83.2644 10.2685 83.2644 7.75694C83.2644 5.24537 85.5466 3.21991 88.3765 3.21991ZM88.3765 5.24537C86.8246 5.24537 85.5466 6.37963 85.5466 7.75694C85.5466 9.14583 86.8246 10.2685 88.3765 10.2685C89.9284 10.2685 91.2065 9.14583 91.2065 7.75694C91.2065 6.37963 89.9284 5.24537 88.3765 5.24537ZM88.3765 15.6505C91.8455 15.6505 94.6624 18.162 94.6624 21.2292C94.6624 24.3079 91.8455 26.8079 88.3765 26.8079C84.9076 26.8079 82.0907 24.3079 82.0907 21.2292C82.0907 18.162 84.9076 15.6505 88.3765 15.6505ZM88.3765 17.6875C86.1726 17.6875 84.3859 19.2731 84.3859 21.2292C84.3859 23.1852 86.1726 24.7593 88.3765 24.7593C90.5805 24.7593 92.3541 23.1852 92.3541 21.2292C92.3541 19.2731 90.5805 17.6875 88.3765 17.6875ZM50.2063 19.9444V21.9815H52.8263V19.9444H50.2063ZM42.8785 37.4329V40.5H97.4401V37.4329H42.8785Z" fill="white"/>
<path d="M2.64 73.5C2.464 73.5 2.328 73.452 2.232 73.356C2.136 73.244 2.088 73.108 2.088 72.948V57.276C2.088 57.1 2.136 56.964 2.232 56.868C2.328 56.756 2.464 56.7 2.64 56.7H13.08C13.256 56.7 13.392 56.756 13.488 56.868C13.584 56.964 13.632 57.1 13.632 57.276V58.236C13.632 58.396 13.584 58.532 13.488 58.644C13.392 58.74 13.256 58.788 13.08 58.788H4.44V63.636H9.192C10.888 63.636 12.208 64.076 13.152 64.956C14.096 65.836 14.568 67.02 14.568 68.508C14.568 69.1 14.456 69.692 14.232 70.284C14.008 70.876 13.672 71.412 13.224 71.892C12.792 72.372 12.24 72.764 11.568 73.068C10.896 73.356 10.104 73.5 9.192 73.5H2.64ZM4.44 71.556H8.904C9.608 71.556 10.2 71.42 10.68 71.148C11.16 70.86 11.528 70.476 11.784 69.996C12.04 69.516 12.168 68.996 12.168 68.436C12.168 67.588 11.896 66.9 11.352 66.372C10.824 65.828 10.008 65.556 8.904 65.556H4.44V71.556ZM22.0721 73.74C20.4241 73.74 19.1121 73.236 18.1361 72.228C17.1601 71.204 16.6241 69.812 16.5281 68.052C16.5121 67.844 16.5041 67.58 16.5041 67.26C16.5041 66.924 16.5121 66.652 16.5281 66.444C16.5921 65.308 16.8561 64.316 17.3201 63.468C17.7841 62.604 18.4161 61.94 19.2161 61.476C20.0321 61.012 20.9841 60.78 22.0721 60.78C23.2881 60.78 24.3041 61.036 25.1201 61.548C25.9521 62.06 26.5841 62.788 27.0161 63.732C27.4481 64.676 27.6641 65.78 27.6641 67.044V67.452C27.6641 67.628 27.6081 67.764 27.4961 67.86C27.4001 67.956 27.2721 68.004 27.1121 68.004H18.8081C18.8081 68.02 18.8081 68.052 18.8081 68.1C18.8081 68.148 18.8081 68.188 18.8081 68.22C18.8401 68.876 18.9841 69.492 19.2401 70.068C19.4961 70.628 19.8641 71.084 20.3441 71.436C20.8241 71.788 21.4001 71.964 22.0721 71.964C22.6481 71.964 23.1281 71.876 23.5121 71.7C23.8961 71.524 24.2081 71.332 24.4481 71.124C24.6881 70.9 24.8481 70.732 24.9281 70.62C25.0721 70.412 25.1841 70.292 25.2641 70.26C25.3441 70.212 25.4721 70.188 25.6481 70.188H26.8001C26.9601 70.188 27.0881 70.236 27.1841 70.332C27.2961 70.412 27.3441 70.532 27.3281 70.692C27.3121 70.932 27.1841 71.228 26.9441 71.58C26.7041 71.916 26.3601 72.252 25.9121 72.588C25.4641 72.924 24.9201 73.204 24.2801 73.428C23.6401 73.636 22.9041 73.74 22.0721 73.74ZM18.8081 66.348H25.3841V66.276C25.3841 65.556 25.2481 64.916 24.9761 64.356C24.7201 63.796 24.3441 63.356 23.8481 63.036C23.3521 62.7 22.7601 62.532 22.0721 62.532C21.3841 62.532 20.7921 62.7 20.2961 63.036C19.8161 63.356 19.4481 63.796 19.1921 64.356C18.9361 64.916 18.8081 65.556 18.8081 66.276V66.348ZM29.8401 73.5C29.6801 73.5 29.5441 73.444 29.4321 73.332C29.3201 73.22 29.2641 73.084 29.2641 72.924V72.036C29.2641 71.7 29.4321 71.524 29.7681 71.508C30.2641 71.492 30.6801 71.26 31.0161 70.812C31.3521 70.348 31.6081 69.62 31.7841 68.628C31.9601 67.62 32.0481 66.292 32.0481 64.644V61.572C32.0481 61.412 32.0961 61.284 32.1921 61.188C32.3041 61.076 32.4401 61.02 32.6001 61.02H40.2321C40.3921 61.02 40.5201 61.076 40.6161 61.188C40.7281 61.284 40.7841 61.412 40.7841 61.572V72.948C40.7841 73.108 40.7281 73.244 40.6161 73.356C40.5201 73.452 40.3921 73.5 40.2321 73.5H39.0801C38.9201 73.5 38.7921 73.452 38.6961 73.356C38.6001 73.244 38.5521 73.108 38.5521 72.948V62.94H34.2321V64.908C34.2321 66.444 34.1441 67.764 33.9681 68.868C33.7921 69.956 33.5201 70.844 33.1521 71.532C32.8001 72.204 32.3441 72.7 31.7841 73.02C31.2401 73.34 30.5921 73.5 29.8401 73.5ZM49.4739 73.74C48.2579 73.74 47.2419 73.508 46.4259 73.044C45.6099 72.58 44.9859 71.94 44.5539 71.124C44.1219 70.292 43.8819 69.348 43.8339 68.292C43.8179 68.02 43.8099 67.676 43.8099 67.26C43.8099 66.828 43.8179 66.484 43.8339 66.228C43.8819 65.156 44.1219 64.212 44.5539 63.396C45.0019 62.58 45.6339 61.94 46.4499 61.476C47.2659 61.012 48.2739 60.78 49.4739 60.78C50.6739 60.78 51.6819 61.012 52.4979 61.476C53.3139 61.94 53.9379 62.58 54.3699 63.396C54.8179 64.212 55.0659 65.156 55.1139 66.228C55.1299 66.484 55.1379 66.828 55.1379 67.26C55.1379 67.676 55.1299 68.02 55.1139 68.292C55.0659 69.348 54.8259 70.292 54.3939 71.124C53.9619 71.94 53.3379 72.58 52.5219 73.044C51.7059 73.508 50.6899 73.74 49.4739 73.74ZM49.4739 71.892C50.4659 71.892 51.2579 71.58 51.8499 70.956C52.4419 70.316 52.7619 69.388 52.8099 68.172C52.8259 67.932 52.8339 67.628 52.8339 67.26C52.8339 66.892 52.8259 66.588 52.8099 66.348C52.7619 65.132 52.4419 64.212 51.8499 63.588C51.2579 62.948 50.4659 62.628 49.4739 62.628C48.4819 62.628 47.6819 62.948 47.0739 63.588C46.4819 64.212 46.1699 65.132 46.1379 66.348C46.1219 66.588 46.1139 66.892 46.1139 67.26C46.1139 67.628 46.1219 67.932 46.1379 68.172C46.1699 69.388 46.4819 70.316 47.0739 70.956C47.6819 71.58 48.4819 71.892 49.4739 71.892ZM58.6952 73.5C58.5352 73.5 58.3992 73.452 58.2872 73.356C58.1912 73.244 58.1432 73.108 58.1432 72.948V61.572C58.1432 61.412 58.1912 61.284 58.2872 61.188C58.3992 61.076 58.5352 61.02 58.6952 61.02H59.7992C59.9592 61.02 60.0872 61.076 60.1832 61.188C60.2952 61.284 60.3512 61.412 60.3512 61.572V71.58H64.7432V61.572C64.7432 61.412 64.7912 61.284 64.8872 61.188C64.9992 61.076 65.1352 61.02 65.2952 61.02H66.3032C66.4792 61.02 66.6152 61.076 66.7112 61.188C66.8072 61.284 66.8552 61.412 66.8552 61.572V71.58H71.2472V61.572C71.2472 61.412 71.2952 61.284 71.3912 61.188C71.5032 61.076 71.6392 61.02 71.7992 61.02H72.9032C73.0632 61.02 73.1912 61.076 73.2872 61.188C73.3992 61.284 73.4552 61.412 73.4552 61.572V72.948C73.4552 73.108 73.3992 73.244 73.2872 73.356C73.1912 73.452 73.0632 73.5 72.9032 73.5H58.6952ZM77.5858 73.5C77.4258 73.5 77.2898 73.452 77.1778 73.356C77.0818 73.244 77.0338 73.108 77.0338 72.948V61.572C77.0338 61.412 77.0818 61.284 77.1778 61.188C77.2898 61.076 77.4258 61.02 77.5858 61.02H82.5778C84.0818 61.02 85.2098 61.324 85.9618 61.932C86.7298 62.54 87.1138 63.356 87.1138 64.38C87.1138 65.1 86.9778 65.644 86.7058 66.012C86.4338 66.38 86.0498 66.692 85.5538 66.948C86.1618 67.204 86.6178 67.62 86.9218 68.196C87.2418 68.756 87.4018 69.34 87.4018 69.948C87.4018 71.1 86.9938 71.98 86.1778 72.588C85.3618 73.196 84.2258 73.5 82.7698 73.5H77.5858ZM79.2418 71.748H82.5778C83.3458 71.748 83.9618 71.604 84.4258 71.316C84.9058 71.012 85.1458 70.556 85.1458 69.948C85.1458 69.308 84.9298 68.844 84.4978 68.556C84.0658 68.252 83.4258 68.1 82.5778 68.1H79.2418V71.748ZM79.2418 66.324H82.4338C83.2018 66.324 83.8098 66.156 84.2578 65.82C84.7218 65.484 84.9538 65.012 84.9538 64.404C84.9538 63.78 84.7218 63.356 84.2578 63.132C83.8098 62.892 83.2018 62.772 82.4338 62.772H79.2418V66.324ZM95.4549 73.74C93.8069 73.74 92.4949 73.236 91.5189 72.228C90.5429 71.204 90.0069 69.812 89.9109 68.052C89.8949 67.844 89.8869 67.58 89.8869 67.26C89.8869 66.924 89.8949 66.652 89.9109 66.444C89.9749 65.308 90.2389 64.316 90.7029 63.468C91.1669 62.604 91.7989 61.94 92.5989 61.476C93.4149 61.012 94.3669 60.78 95.4549 60.78C96.6709 60.78 97.6869 61.036 98.5029 61.548C99.3349 62.06 99.9669 62.788 100.399 63.732C100.831 64.676 101.047 65.78 101.047 67.044V67.452C101.047 67.628 100.991 67.764 100.879 67.86C100.783 67.956 100.655 68.004 100.495 68.004H92.1909C92.1909 68.02 92.1909 68.052 92.1909 68.1C92.1909 68.148 92.1909 68.188 92.1909 68.22C92.2229 68.876 92.3669 69.492 92.6229 70.068C92.8789 70.628 93.2469 71.084 93.7269 71.436C94.2069 71.788 94.7829 71.964 95.4549 71.964C96.0309 71.964 96.5109 71.876 96.8949 71.7C97.2789 71.524 97.5909 71.332 97.8309 71.124C98.0709 70.9 98.2309 70.732 98.3109 70.62C98.4549 70.412 98.5669 70.292 98.6469 70.26C98.7269 70.212 98.8549 70.188 99.0309 70.188H100.183C100.343 70.188 100.471 70.236 100.567 70.332C100.679 70.412 100.727 70.532 100.711 70.692C100.695 70.932 100.567 71.228 100.327 71.58C100.087 71.916 99.7429 72.252 99.2949 72.588C98.8469 72.924 98.3029 73.204 97.6629 73.428C97.0229 73.636 96.2869 73.74 95.4549 73.74ZM92.1909 66.348H98.7669V66.276C98.7669 65.556 98.6309 64.916 98.3589 64.356C98.1029 63.796 97.7269 63.356 97.2309 63.036C96.7349 62.7 96.1429 62.532 95.4549 62.532C94.7669 62.532 94.1749 62.7 93.6789 63.036C93.1989 63.356 92.8309 63.796 92.5749 64.356C92.3189 64.916 92.1909 65.556 92.1909 66.276V66.348ZM104.445 73.5C104.301 73.5 104.173 73.452 104.061 73.356C103.965 73.244 103.917 73.124 103.917 72.996V61.572C103.917 61.412 103.965 61.284 104.061 61.188C104.173 61.076 104.309 61.02 104.469 61.02H105.621C105.781 61.02 105.909 61.076 106.005 61.188C106.101 61.284 106.149 61.412 106.149 61.572V71.748L105.525 71.1L112.797 61.38C112.877 61.284 112.965 61.204 113.061 61.14C113.157 61.06 113.277 61.02 113.421 61.02H114.525C114.653 61.02 114.765 61.068 114.861 61.164C114.973 61.26 115.029 61.372 115.029 61.5V72.948C115.029 73.108 114.973 73.244 114.861 73.356C114.765 73.452 114.637 73.5 114.477 73.5H113.349C113.173 73.5 113.037 73.452 112.941 73.356C112.845 73.244 112.797 73.108 112.797 72.948V63.372L113.469 63.348L106.149 73.14C106.085 73.22 106.005 73.3 105.909 73.38C105.813 73.46 105.685 73.5 105.525 73.5H104.445ZM109.533 59.364C108.605 59.364 107.877 59.22 107.349 58.932C106.821 58.644 106.453 58.276 106.245 57.828C106.037 57.364 105.933 56.884 105.933 56.388C105.933 56.26 105.965 56.156 106.029 56.076C106.109 55.98 106.229 55.932 106.389 55.932H107.205C107.349 55.932 107.461 55.98 107.541 56.076C107.621 56.156 107.661 56.26 107.661 56.388C107.661 56.756 107.781 57.1 108.021 57.42C108.277 57.724 108.781 57.876 109.533 57.876C110.301 57.876 110.805 57.724 111.045 57.42C111.285 57.1 111.405 56.756 111.405 56.388C111.405 56.26 111.445 56.156 111.525 56.076C111.605 55.98 111.717 55.932 111.861 55.932H112.701C112.845 55.932 112.957 55.98 113.037 56.076C113.117 56.156 113.157 56.26 113.157 56.388C113.157 56.884 113.045 57.364 112.821 57.828C112.613 58.276 112.245 58.644 111.717 58.932C111.189 59.22 110.461 59.364 109.533 59.364ZM119.094 73.5C118.934 73.5 118.798 73.452 118.686 73.356C118.59 73.244 118.542 73.108 118.542 72.948V61.572C118.542 61.412 118.59 61.284 118.686 61.188C118.798 61.076 118.934 61.02 119.094 61.02H120.222C120.382 61.02 120.51 61.076 120.606 61.188C120.718 61.284 120.774 61.412 120.774 61.572V66.18H122.958L126.198 61.38C126.278 61.268 126.366 61.18 126.462 61.116C126.558 61.052 126.686 61.02 126.846 61.02H128.094C128.238 61.02 128.358 61.052 128.454 61.116C128.55 61.18 128.598 61.276 128.598 61.404C128.598 61.436 128.582 61.484 128.55 61.548C128.534 61.596 128.51 61.644 128.478 61.692L124.878 66.996L128.958 72.804C129.038 72.9 129.078 73.004 129.078 73.116C129.078 73.244 129.03 73.34 128.934 73.404C128.854 73.468 128.742 73.5 128.598 73.5H127.134C126.99 73.5 126.87 73.468 126.774 73.404C126.678 73.34 126.59 73.252 126.51 73.14L122.982 68.124H120.774V72.948C120.774 73.108 120.718 73.244 120.606 73.356C120.51 73.452 120.382 73.5 120.222 73.5H119.094ZM134.889 73.74C134.089 73.74 133.361 73.58 132.705 73.26C132.049 72.94 131.521 72.508 131.121 71.964C130.721 71.42 130.521 70.804 130.521 70.116C130.521 69.012 130.969 68.132 131.865 67.476C132.761 66.82 133.929 66.388 135.369 66.18L138.945 65.676V64.98C138.945 64.212 138.721 63.612 138.273 63.18C137.841 62.748 137.129 62.532 136.137 62.532C135.417 62.532 134.833 62.676 134.385 62.964C133.953 63.252 133.649 63.62 133.473 64.068C133.377 64.308 133.209 64.428 132.969 64.428H131.889C131.713 64.428 131.577 64.38 131.481 64.284C131.401 64.172 131.361 64.044 131.361 63.9C131.361 63.66 131.449 63.364 131.625 63.012C131.817 62.66 132.105 62.316 132.489 61.98C132.873 61.644 133.361 61.364 133.953 61.14C134.561 60.9 135.297 60.78 136.161 60.78C137.121 60.78 137.929 60.908 138.585 61.164C139.241 61.404 139.753 61.732 140.121 62.148C140.505 62.564 140.777 63.036 140.937 63.564C141.113 64.092 141.201 64.628 141.201 65.172V72.948C141.201 73.108 141.145 73.244 141.033 73.356C140.937 73.452 140.809 73.5 140.649 73.5H139.545C139.369 73.5 139.233 73.452 139.137 73.356C139.041 73.244 138.993 73.108 138.993 72.948V71.916C138.785 72.204 138.505 72.492 138.153 72.78C137.801 73.052 137.361 73.284 136.833 73.476C136.305 73.652 135.657 73.74 134.889 73.74ZM135.393 71.94C136.049 71.94 136.649 71.804 137.193 71.532C137.737 71.244 138.161 70.804 138.465 70.212C138.785 69.62 138.945 68.876 138.945 67.98V67.308L136.161 67.716C135.025 67.876 134.169 68.148 133.593 68.532C133.017 68.9 132.729 69.372 132.729 69.948C132.729 70.396 132.857 70.772 133.113 71.076C133.385 71.364 133.721 71.58 134.121 71.724C134.537 71.868 134.961 71.94 135.393 71.94Z" fill="white"/>
</svg>
