<svg width="43" height="42" viewBox="0 0 43 42" fill="none" xmlns="http://www.w3.org/2000/svg">
<path d="M1.5 21H3.72222M21.5 1V3.22222M39.2778 21H41.5M7.27778 6.77778L8.83333 8.33333M35.7222 6.77778L34.1667 8.33333M16.3889 32.1111H26.6111M14.8333 29.8889C12.9677 28.4897 11.5896 26.5389 10.8943 24.313C10.199 22.087 10.2216 19.6987 10.9591 17.4864C11.6965 15.274 13.1114 13.3498 15.0032 11.9862C16.8951 10.6226 19.168 9.88889 21.5 9.88889C23.832 9.88889 26.1049 10.6226 27.9968 11.9862C29.8886 13.3498 31.3035 15.274 32.0409 17.4864C32.7784 19.6987 32.801 22.087 32.1057 24.313C31.4104 26.5389 30.0323 28.4897 28.1667 29.8889C27.299 30.7477 26.6458 31.7988 26.2597 32.9569C25.8737 34.1151 25.7657 35.3479 25.9444 36.5556C25.9444 37.7343 25.4762 38.8648 24.6427 39.6983C23.8092 40.5317 22.6787 41 21.5 41C20.3213 41 19.1908 40.5317 18.3573 39.6983C17.5238 38.8648 17.0556 37.7343 17.0556 36.5556C17.2343 35.3479 17.1263 34.1151 16.7403 32.9569C16.3542 31.7988 15.701 30.7477 14.8333 29.8889Z" stroke="white" stroke-width="2" stroke-linecap="round" stroke-linejoin="round"/>
</svg>
